<?xml version="1.0" encoding="UTF-8" standalone="no"?>
<!DOCTYPE svg PUBLIC "-//W3C//DTD SVG 1.1//EN"
 "http://www.w3.org/Graphics/SVG/1.1/DTD/svg11.dtd">
<!-- Generated by graphviz version 2.36.0 (20140111.2315)
 -->
<!-- Title: plot Pages: 1 -->
<svg width="289pt" height="1006pt"
 viewBox="0.00 0.00 289.00 1006.00" xmlns="http://www.w3.org/2000/svg" xmlns:xlink="http://www.w3.org/1999/xlink">
<g id="graph0" class="graph" transform="scale(1 1) rotate(0) translate(4 1002)">
<title>plot</title>
<polygon fill="white" stroke="none" points="-4,4 -4,-1002 285,-1002 285,4 -4,4"/>
<!-- Previos Output -->
<g id="node1" class="node"><title>Previos Output</title>
<polygon fill="#8dd3c7" stroke="black" points="169,-58 75,-58 75,-3.55271e-15 169,-3.55271e-15 169,-58"/>
<text text-anchor="middle" x="122" y="-25.3" font-family="Times,serif" font-size="14.00">Previos Output</text>
</g>
<!-- conv_in3c_3x3_reduce -->
<g id="node2" class="node"><title>conv_in3c_3x3_reduce</title>
<polygon fill="#fb8072" stroke="black" points="94,-340 -7.10543e-15,-340 -7.10543e-15,-282 94,-282 94,-340"/>
<text text-anchor="middle" x="47" y="-314.8" font-family="Times,serif" font-size="14.00">Convolution</text>
<text text-anchor="middle" x="47" y="-299.8" font-family="Times,serif" font-size="14.00">1x1/1, 128</text>
</g>
<!-- conv_in3c_3x3_reduce&#45;&gt;Previos Output -->
<g id="edge1" class="edge"><title>conv_in3c_3x3_reduce&#45;&gt;Previos Output</title>
<path fill="none" stroke="black" d="M43.395,-271.621C40.754,-227.041 41.1764,-152.18 66,-94 71.6202,-80.8277 81.0213,-68.4491 90.5311,-58.1538"/>
<polygon fill="black" stroke="black" points="44.0782,-281.735 38.9144,-272.061 43.7412,-276.746 43.4041,-271.758 43.4041,-271.758 43.4041,-271.758 43.7412,-276.746 47.8939,-271.454 44.0782,-281.735 44.0782,-281.735"/>
</g>
<!-- bn_in3c_3x3_reduce -->
<g id="node3" class="node"><title>bn_in3c_3x3_reduce</title>
<polygon fill="#bebada" stroke="black" points="94,-434 -7.10543e-15,-434 -7.10543e-15,-376 94,-376 94,-434"/>
<text text-anchor="middle" x="47" y="-401.3" font-family="Times,serif" font-size="14.00">BatchNorm</text>
</g>
<!-- bn_in3c_3x3_reduce&#45;&gt;conv_in3c_3x3_reduce -->
<g id="edge2" class="edge"><title>bn_in3c_3x3_reduce&#45;&gt;conv_in3c_3x3_reduce</title>
<path fill="none" stroke="black" d="M47,-365.744C47,-357.204 47,-348.298 47,-340.248"/>
<polygon fill="black" stroke="black" points="47,-375.897 42.5001,-365.897 47,-370.897 47.0001,-365.897 47.0001,-365.897 47.0001,-365.897 47,-370.897 51.5001,-365.897 47,-375.897 47,-375.897"/>
</g>
<!-- relu_in3c_3x3_reduce -->
<g id="node4" class="node"><title>relu_in3c_3x3_reduce</title>
<polygon fill="#ffffb3" stroke="black" points="94,-528 -7.10543e-15,-528 -7.10543e-15,-470 94,-470 94,-528"/>
<text text-anchor="middle" x="47" y="-502.8" font-family="Times,serif" font-size="14.00">Activation</text>
<text text-anchor="middle" x="47" y="-487.8" font-family="Times,serif" font-size="14.00">relu</text>
</g>
<!-- relu_in3c_3x3_reduce&#45;&gt;bn_in3c_3x3_reduce -->
<g id="edge3" class="edge"><title>relu_in3c_3x3_reduce&#45;&gt;bn_in3c_3x3_reduce</title>
<path fill="none" stroke="black" d="M47,-459.744C47,-451.204 47,-442.298 47,-434.248"/>
<polygon fill="black" stroke="black" points="47,-469.897 42.5001,-459.897 47,-464.897 47.0001,-459.897 47.0001,-459.897 47.0001,-459.897 47,-464.897 51.5001,-459.897 47,-469.897 47,-469.897"/>
</g>
<!-- conv_in3c_3x3 -->
<g id="node5" class="node"><title>conv_in3c_3x3</title>
<polygon fill="#fb8072" stroke="black" points="94,-622 -7.10543e-15,-622 -7.10543e-15,-564 94,-564 94,-622"/>
<text text-anchor="middle" x="47" y="-596.8" font-family="Times,serif" font-size="14.00">Convolution</text>
<text text-anchor="middle" x="47" y="-581.8" font-family="Times,serif" font-size="14.00">3x3/2, 160</text>
</g>
<!-- conv_in3c_3x3&#45;&gt;relu_in3c_3x3_reduce -->
<g id="edge4" class="edge"><title>conv_in3c_3x3&#45;&gt;relu_in3c_3x3_reduce</title>
<path fill="none" stroke="black" d="M47,-553.744C47,-545.204 47,-536.298 47,-528.248"/>
<polygon fill="black" stroke="black" points="47,-563.897 42.5001,-553.897 47,-558.897 47.0001,-553.897 47.0001,-553.897 47.0001,-553.897 47,-558.897 51.5001,-553.897 47,-563.897 47,-563.897"/>
</g>
<!-- bn_in3c_3x3 -->
<g id="node6" class="node"><title>bn_in3c_3x3</title>
<polygon fill="#bebada" stroke="black" points="94,-716 -7.10543e-15,-716 -7.10543e-15,-658 94,-658 94,-716"/>
<text text-anchor="middle" x="47" y="-683.3" font-family="Times,serif" font-size="14.00">BatchNorm</text>
</g>
<!-- bn_in3c_3x3&#45;&gt;conv_in3c_3x3 -->
<g id="edge5" class="edge"><title>bn_in3c_3x3&#45;&gt;conv_in3c_3x3</title>
<path fill="none" stroke="black" d="M47,-647.744C47,-639.204 47,-630.298 47,-622.248"/>
<polygon fill="black" stroke="black" points="47,-657.897 42.5001,-647.897 47,-652.897 47.0001,-647.897 47.0001,-647.897 47.0001,-647.897 47,-652.897 51.5001,-647.897 47,-657.897 47,-657.897"/>
</g>
<!-- relu_in3c_3x3 -->
<g id="node7" class="node"><title>relu_in3c_3x3</title>
<polygon fill="#ffffb3" stroke="black" points="94,-810 -7.10543e-15,-810 -7.10543e-15,-752 94,-752 94,-810"/>
<text text-anchor="middle" x="47" y="-784.8" font-family="Times,serif" font-size="14.00">Activation</text>
<text text-anchor="middle" x="47" y="-769.8" font-family="Times,serif" font-size="14.00">relu</text>
</g>
<!-- relu_in3c_3x3&#45;&gt;bn_in3c_3x3 -->
<g id="edge6" class="edge"><title>relu_in3c_3x3&#45;&gt;bn_in3c_3x3</title>
<path fill="none" stroke="black" d="M47,-741.744C47,-733.204 47,-724.298 47,-716.248"/>
<polygon fill="black" stroke="black" points="47,-751.897 42.5001,-741.897 47,-746.897 47.0001,-741.897 47.0001,-741.897 47.0001,-741.897 47,-746.897 51.5001,-741.897 47,-751.897 47,-751.897"/>
</g>
<!-- conv_in3c_double_3x3_reduce -->
<g id="node8" class="node"><title>conv_in3c_double_3x3_reduce</title>
<polygon fill="#fb8072" stroke="black" points="169,-152 75,-152 75,-94 169,-94 169,-152"/>
<text text-anchor="middle" x="122" y="-126.8" font-family="Times,serif" font-size="14.00">Convolution</text>
<text text-anchor="middle" x="122" y="-111.8" font-family="Times,serif" font-size="14.00">1x1/1, 64</text>
</g>
<!-- conv_in3c_double_3x3_reduce&#45;&gt;Previos Output -->
<g id="edge7" class="edge"><title>conv_in3c_double_3x3_reduce&#45;&gt;Previos Output</title>
<path fill="none" stroke="black" d="M122,-83.7443C122,-75.2043 122,-66.2977 122,-58.2479"/>
<polygon fill="black" stroke="black" points="122,-93.8971 117.5,-83.897 122,-88.8971 122,-83.8971 122,-83.8971 122,-83.8971 122,-88.8971 126.5,-83.8971 122,-93.8971 122,-93.8971"/>
</g>
<!-- bn_in3c_double_3x3_reduce -->
<g id="node9" class="node"><title>bn_in3c_double_3x3_reduce</title>
<polygon fill="#bebada" stroke="black" points="169,-246 75,-246 75,-188 169,-188 169,-246"/>
<text text-anchor="middle" x="122" y="-213.3" font-family="Times,serif" font-size="14.00">BatchNorm</text>
</g>
<!-- bn_in3c_double_3x3_reduce&#45;&gt;conv_in3c_double_3x3_reduce -->
<g id="edge8" class="edge"><title>bn_in3c_double_3x3_reduce&#45;&gt;conv_in3c_double_3x3_reduce</title>
<path fill="none" stroke="black" d="M122,-177.744C122,-169.204 122,-160.298 122,-152.248"/>
<polygon fill="black" stroke="black" points="122,-187.897 117.5,-177.897 122,-182.897 122,-177.897 122,-177.897 122,-177.897 122,-182.897 126.5,-177.897 122,-187.897 122,-187.897"/>
</g>
<!-- relu_in3c_double_3x3_reduce -->
<g id="node10" class="node"><title>relu_in3c_double_3x3_reduce</title>
<polygon fill="#ffffb3" stroke="black" points="206,-340 112,-340 112,-282 206,-282 206,-340"/>
<text text-anchor="middle" x="159" y="-314.8" font-family="Times,serif" font-size="14.00">Activation</text>
<text text-anchor="middle" x="159" y="-299.8" font-family="Times,serif" font-size="14.00">relu</text>
</g>
<!-- relu_in3c_double_3x3_reduce&#45;&gt;bn_in3c_double_3x3_reduce -->
<g id="edge9" class="edge"><title>relu_in3c_double_3x3_reduce&#45;&gt;bn_in3c_double_3x3_reduce</title>
<path fill="none" stroke="black" d="M143.954,-272.588C140.417,-263.793 136.705,-254.563 133.361,-246.248"/>
<polygon fill="black" stroke="black" points="147.698,-281.897 139.791,-274.298 145.832,-277.258 143.966,-272.619 143.966,-272.619 143.966,-272.619 145.832,-277.258 148.141,-270.94 147.698,-281.897 147.698,-281.897"/>
</g>
<!-- conv_in3c_double_3x3_0 -->
<g id="node11" class="node"><title>conv_in3c_double_3x3_0</title>
<polygon fill="#fb8072" stroke="black" points="206,-434 112,-434 112,-376 206,-376 206,-434"/>
<text text-anchor="middle" x="159" y="-408.8" font-family="Times,serif" font-size="14.00">Convolution</text>
<text text-anchor="middle" x="159" y="-393.8" font-family="Times,serif" font-size="14.00">3x3/1, 96</text>
</g>
<!-- conv_in3c_double_3x3_0&#45;&gt;relu_in3c_double_3x3_reduce -->
<g id="edge10" class="edge"><title>conv_in3c_double_3x3_0&#45;&gt;relu_in3c_double_3x3_reduce</title>
<path fill="none" stroke="black" d="M159,-365.744C159,-357.204 159,-348.298 159,-340.248"/>
<polygon fill="black" stroke="black" points="159,-375.897 154.5,-365.897 159,-370.897 159,-365.897 159,-365.897 159,-365.897 159,-370.897 163.5,-365.897 159,-375.897 159,-375.897"/>
</g>
<!-- bn_in3c_double_3x3_0 -->
<g id="node12" class="node"><title>bn_in3c_double_3x3_0</title>
<polygon fill="#bebada" stroke="black" points="206,-528 112,-528 112,-470 206,-470 206,-528"/>
<text text-anchor="middle" x="159" y="-495.3" font-family="Times,serif" font-size="14.00">BatchNorm</text>
</g>
<!-- bn_in3c_double_3x3_0&#45;&gt;conv_in3c_double_3x3_0 -->
<g id="edge11" class="edge"><title>bn_in3c_double_3x3_0&#45;&gt;conv_in3c_double_3x3_0</title>
<path fill="none" stroke="black" d="M159,-459.744C159,-451.204 159,-442.298 159,-434.248"/>
<polygon fill="black" stroke="black" points="159,-469.897 154.5,-459.897 159,-464.897 159,-459.897 159,-459.897 159,-459.897 159,-464.897 163.5,-459.897 159,-469.897 159,-469.897"/>
</g>
<!-- relu_in3c_double_3x3_0 -->
<g id="node13" class="node"><title>relu_in3c_double_3x3_0</title>
<polygon fill="#ffffb3" stroke="black" points="206,-622 112,-622 112,-564 206,-564 206,-622"/>
<text text-anchor="middle" x="159" y="-596.8" font-family="Times,serif" font-size="14.00">Activation</text>
<text text-anchor="middle" x="159" y="-581.8" font-family="Times,serif" font-size="14.00">relu</text>
</g>
<!-- relu_in3c_double_3x3_0&#45;&gt;bn_in3c_double_3x3_0 -->
<g id="edge12" class="edge"><title>relu_in3c_double_3x3_0&#45;&gt;bn_in3c_double_3x3_0</title>
<path fill="none" stroke="black" d="M159,-553.744C159,-545.204 159,-536.298 159,-528.248"/>
<polygon fill="black" stroke="black" points="159,-563.897 154.5,-553.897 159,-558.897 159,-553.897 159,-553.897 159,-553.897 159,-558.897 163.5,-553.897 159,-563.897 159,-563.897"/>
</g>
<!-- conv_in3c_double_3x3_1 -->
<g id="node14" class="node"><title>conv_in3c_double_3x3_1</title>
<polygon fill="#fb8072" stroke="black" points="206,-716 112,-716 112,-658 206,-658 206,-716"/>
<text text-anchor="middle" x="159" y="-690.8" font-family="Times,serif" font-size="14.00">Convolution</text>
<text text-anchor="middle" x="159" y="-675.8" font-family="Times,serif" font-size="14.00">3x3/2, 96</text>
</g>
<!-- conv_in3c_double_3x3_1&#45;&gt;relu_in3c_double_3x3_0 -->
<g id="edge13" class="edge"><title>conv_in3c_double_3x3_1&#45;&gt;relu_in3c_double_3x3_0</title>
<path fill="none" stroke="black" d="M159,-647.744C159,-639.204 159,-630.298 159,-622.248"/>
<polygon fill="black" stroke="black" points="159,-657.897 154.5,-647.897 159,-652.897 159,-647.897 159,-647.897 159,-647.897 159,-652.897 163.5,-647.897 159,-657.897 159,-657.897"/>
</g>
<!-- bn_in3c_double_3x3_1 -->
<g id="node15" class="node"><title>bn_in3c_double_3x3_1</title>
<polygon fill="#bebada" stroke="black" points="206,-810 112,-810 112,-752 206,-752 206,-810"/>
<text text-anchor="middle" x="159" y="-777.3" font-family="Times,serif" font-size="14.00">BatchNorm</text>
</g>
<!-- bn_in3c_double_3x3_1&#45;&gt;conv_in3c_double_3x3_1 -->
<g id="edge14" class="edge"><title>bn_in3c_double_3x3_1&#45;&gt;conv_in3c_double_3x3_1</title>
<path fill="none" stroke="black" d="M159,-741.744C159,-733.204 159,-724.298 159,-716.248"/>
<polygon fill="black" stroke="black" points="159,-751.897 154.5,-741.897 159,-746.897 159,-741.897 159,-741.897 159,-741.897 159,-746.897 163.5,-741.897 159,-751.897 159,-751.897"/>
</g>
<!-- relu_in3c_double_3x3_1 -->
<g id="node16" class="node"><title>relu_in3c_double_3x3_1</title>
<polygon fill="#ffffb3" stroke="black" points="206,-904 112,-904 112,-846 206,-846 206,-904"/>
<text text-anchor="middle" x="159" y="-878.8" font-family="Times,serif" font-size="14.00">Activation</text>
<text text-anchor="middle" x="159" y="-863.8" font-family="Times,serif" font-size="14.00">relu</text>
</g>
<!-- relu_in3c_double_3x3_1&#45;&gt;bn_in3c_double_3x3_1 -->
<g id="edge15" class="edge"><title>relu_in3c_double_3x3_1&#45;&gt;bn_in3c_double_3x3_1</title>
<path fill="none" stroke="black" d="M159,-835.744C159,-827.204 159,-818.298 159,-810.248"/>
<polygon fill="black" stroke="black" points="159,-845.897 154.5,-835.897 159,-840.897 159,-835.897 159,-835.897 159,-835.897 159,-840.897 163.5,-835.897 159,-845.897 159,-845.897"/>
</g>
<!-- max_pool_in3c_pool -->
<g id="node17" class="node"><title>max_pool_in3c_pool</title>
<polygon fill="#80b1d3" stroke="black" points="281,-246 187,-246 187,-188 281,-188 281,-246"/>
<text text-anchor="middle" x="234" y="-220.8" font-family="Times,serif" font-size="14.00">Pooling</text>
<text text-anchor="middle" x="234" y="-205.8" font-family="Times,serif" font-size="14.00">max, 3x3/2</text>
</g>
<!-- max_pool_in3c_pool&#45;&gt;Previos Output -->
<g id="edge16" class="edge"><title>max_pool_in3c_pool&#45;&gt;Previos Output</title>
<path fill="none" stroke="black" d="M219.966,-178.223C209.944,-153.352 195.22,-120.596 178,-94 169.896,-81.4828 159.47,-68.8805 149.815,-58.2087"/>
<polygon fill="black" stroke="black" points="223.704,-187.679 215.842,-180.033 221.866,-183.029 220.027,-178.379 220.027,-178.379 220.027,-178.379 221.866,-183.029 224.212,-176.724 223.704,-187.679 223.704,-187.679"/>
</g>
<!-- ch_concat_in3c_chconcat -->
<g id="node18" class="node"><title>ch_concat_in3c_chconcat</title>
<polygon fill="#fdb462" stroke="black" points="206,-998 112,-998 112,-940 206,-940 206,-998"/>
<text text-anchor="middle" x="159" y="-965.3" font-family="Times,serif" font-size="14.00">Concat</text>
</g>
<!-- ch_concat_in3c_chconcat&#45;&gt;relu_in3c_3x3 -->
<g id="edge17" class="edge"><title>ch_concat_in3c_chconcat&#45;&gt;relu_in3c_3x3</title>
<path fill="none" stroke="black" d="M124.54,-932.264C116.925,-923.413 109.268,-913.681 103,-904 83.4944,-873.873 67.1913,-835.844 57.2964,-810.321"/>
<polygon fill="black" stroke="black" points="131.185,-939.791 121.193,-935.273 127.876,-936.043 124.567,-932.294 124.567,-932.294 124.567,-932.294 127.876,-936.043 127.94,-929.316 131.185,-939.791 131.185,-939.791"/>
</g>
<!-- ch_concat_in3c_chconcat&#45;&gt;relu_in3c_double_3x3_1 -->
<g id="edge18" class="edge"><title>ch_concat_in3c_chconcat&#45;&gt;relu_in3c_double_3x3_1</title>
<path fill="none" stroke="black" d="M159,-929.744C159,-921.204 159,-912.298 159,-904.248"/>
<polygon fill="black" stroke="black" points="159,-939.897 154.5,-929.897 159,-934.897 159,-929.897 159,-929.897 159,-929.897 159,-934.897 163.5,-929.897 159,-939.897 159,-939.897"/>
</g>
<!-- ch_concat_in3c_chconcat&#45;&gt;max_pool_in3c_pool -->
<g id="edge19" class="edge"><title>ch_concat_in3c_chconcat&#45;&gt;max_pool_in3c_pool</title>
<path fill="none" stroke="black" d="M196.365,-932.319C203.566,-923.69 210.315,-914.038 215,-904 238.208,-854.273 234,-836.876 234,-782 234,-782 234,-782 234,-404 234,-347.974 234,-282.455 234,-246.045"/>
<polygon fill="black" stroke="black" points="189.671,-939.939 192.89,-929.456 192.971,-936.183 196.271,-932.426 196.271,-932.426 196.271,-932.426 192.971,-936.183 199.652,-935.396 189.671,-939.939 189.671,-939.939"/>
</g>
</g>
</svg>
