<?xml version="1.0" encoding="UTF-8" standalone="no"?>
<!DOCTYPE svg PUBLIC "-//W3C//DTD SVG 1.1//EN"
 "http://www.w3.org/Graphics/SVG/1.1/DTD/svg11.dtd">
<!-- Generated by graphviz version 2.36.0 (20140111.2315)
 -->
<!-- Title: plot Pages: 1 -->
<svg width="102pt" height="348pt"
 viewBox="0.00 0.00 102.00 348.00" xmlns="http://www.w3.org/2000/svg" xmlns:xlink="http://www.w3.org/1999/xlink">
<g id="graph0" class="graph" transform="scale(1 1) rotate(0) translate(4 344)">
<title>plot</title>
<polygon fill="white" stroke="none" points="-4,4 -4,-344 98,-344 98,4 -4,4"/>
<!-- Previos Output -->
<g id="node1" class="node"><title>Previos Output</title>
<polygon fill="#8dd3c7" stroke="black" points="94,-58 -7.10543e-15,-58 -7.10543e-15,-3.55271e-15 94,-3.55271e-15 94,-58"/>
<text text-anchor="middle" x="47" y="-25.3" font-family="Times,serif" font-size="14.00">Previos Output</text>
</g>
<!-- conv_None -->
<g id="node2" class="node"><title>conv_None</title>
<polygon fill="#fb8072" stroke="black" points="94,-152 -7.10543e-15,-152 -7.10543e-15,-94 94,-94 94,-152"/>
<text text-anchor="middle" x="47" y="-126.8" font-family="Times,serif" font-size="14.00">Convolution</text>
<text text-anchor="middle" x="47" y="-111.8" font-family="Times,serif" font-size="14.00">7x7/2, 64</text>
</g>
<!-- conv_None&#45;&gt;Previos Output -->
<g id="edge1" class="edge"><title>conv_None&#45;&gt;Previos Output</title>
<path fill="none" stroke="black" d="M47,-83.7443C47,-75.2043 47,-66.2977 47,-58.2479"/>
<polygon fill="black" stroke="black" points="47,-93.8971 42.5001,-83.897 47,-88.8971 47.0001,-83.8971 47.0001,-83.8971 47.0001,-83.8971 47,-88.8971 51.5001,-83.8971 47,-93.8971 47,-93.8971"/>
</g>
<!-- bn_None -->
<g id="node3" class="node"><title>bn_None</title>
<polygon fill="#bebada" stroke="black" points="94,-246 -7.10543e-15,-246 -7.10543e-15,-188 94,-188 94,-246"/>
<text text-anchor="middle" x="47" y="-213.3" font-family="Times,serif" font-size="14.00">BatchNorm</text>
</g>
<!-- bn_None&#45;&gt;conv_None -->
<g id="edge2" class="edge"><title>bn_None&#45;&gt;conv_None</title>
<path fill="none" stroke="black" d="M47,-177.744C47,-169.204 47,-160.298 47,-152.248"/>
<polygon fill="black" stroke="black" points="47,-187.897 42.5001,-177.897 47,-182.897 47.0001,-177.897 47.0001,-177.897 47.0001,-177.897 47,-182.897 51.5001,-177.897 47,-187.897 47,-187.897"/>
</g>
<!-- relu_None -->
<g id="node4" class="node"><title>relu_None</title>
<polygon fill="#ffffb3" stroke="black" points="94,-340 -7.10543e-15,-340 -7.10543e-15,-282 94,-282 94,-340"/>
<text text-anchor="middle" x="47" y="-314.8" font-family="Times,serif" font-size="14.00">Activation</text>
<text text-anchor="middle" x="47" y="-299.8" font-family="Times,serif" font-size="14.00">relu</text>
</g>
<!-- relu_None&#45;&gt;bn_None -->
<g id="edge3" class="edge"><title>relu_None&#45;&gt;bn_None</title>
<path fill="none" stroke="black" d="M47,-271.744C47,-263.204 47,-254.298 47,-246.248"/>
<polygon fill="black" stroke="black" points="47,-281.897 42.5001,-271.897 47,-276.897 47.0001,-271.897 47.0001,-271.897 47.0001,-271.897 47,-276.897 51.5001,-271.897 47,-281.897 47,-281.897"/>
</g>
</g>
</svg>
