<?xml version="1.0" encoding="UTF-8" standalone="no"?>
<!DOCTYPE svg PUBLIC "-//W3C//DTD SVG 1.1//EN"
 "http://www.w3.org/Graphics/SVG/1.1/DTD/svg11.dtd">
<!-- Generated by graphviz version 2.36.0 (20140111.2315)
 -->
<!-- Title: plot Pages: 1 -->
<svg width="454pt" height="1376pt"
 viewBox="0.00 0.00 454.00 1376.00" xmlns="http://www.w3.org/2000/svg" xmlns:xlink="http://www.w3.org/1999/xlink">
<g id="graph0" class="graph" transform="scale(1 1) rotate(0) translate(4 1372)">
<title>plot</title>
<polygon fill="white" stroke="none" points="-4,4 -4,-1372 450,-1372 450,4 -4,4"/>
<!-- Previos Output -->
<g id="node1" class="node"><title>Previos Output</title>
<polygon fill="#8dd3c7" stroke="black" points="236,-58 142,-58 142,-3.55271e-15 236,-3.55271e-15 236,-58"/>
<text text-anchor="middle" x="189" y="-25.3" font-family="Times,serif" font-size="14.00">Previos Output</text>
</g>
<!-- conv_in3a_1x1 -->
<g id="node2" class="node"><title>conv_in3a_1x1</title>
<polygon fill="#fb8072" stroke="black" points="99,-878 5,-878 5,-820 99,-820 99,-878"/>
<text text-anchor="middle" x="52" y="-852.8" font-family="Times,serif" font-size="14.00">Convolution</text>
<text text-anchor="middle" x="52" y="-837.8" font-family="Times,serif" font-size="14.00">1x1/1, 64</text>
</g>
<!-- conv_in3a_1x1&#45;&gt;Previos Output -->
<g id="edge1" class="edge"><title>conv_in3a_1x1&#45;&gt;Previos Output</title>
<path fill="none" stroke="black" d="M55.9633,-809.703C58.756,-779.421 62,-736.055 62,-698 62,-698 62,-698 62,-138 62,-94.5853 105.602,-64.9684 141.71,-47.8852"/>
<polygon fill="black" stroke="black" points="55.0003,-819.838 51.4664,-809.457 55.4733,-814.861 55.9462,-809.883 55.9462,-809.883 55.9462,-809.883 55.4733,-814.861 60.4261,-810.309 55.0003,-819.838 55.0003,-819.838"/>
<text text-anchor="middle" x="86" y="-431.3" font-family="Times,serif" font-size="14.00">3x28x28</text>
</g>
<!-- bn_in3a_1x1 -->
<g id="node3" class="node"><title>bn_in3a_1x1</title>
<polygon fill="#bebada" stroke="black" points="94,-1030 -7.10543e-15,-1030 -7.10543e-15,-972 94,-972 94,-1030"/>
<text text-anchor="middle" x="47" y="-997.3" font-family="Times,serif" font-size="14.00">BatchNorm</text>
</g>
<!-- bn_in3a_1x1&#45;&gt;conv_in3a_1x1 -->
<g id="edge2" class="edge"><title>bn_in3a_1x1&#45;&gt;conv_in3a_1x1</title>
<path fill="none" stroke="black" d="M48.2831,-961.507C49.1516,-935.451 50.2793,-901.621 51.0638,-878.087"/>
<polygon fill="black" stroke="black" points="47.9405,-971.786 43.7762,-961.642 48.1071,-966.789 48.2737,-961.792 48.2737,-961.792 48.2737,-961.792 48.1071,-966.789 52.7712,-961.942 47.9405,-971.786 47.9405,-971.786"/>
<text text-anchor="middle" x="78.5" y="-921.3" font-family="Times,serif" font-size="14.00">64x28x28</text>
</g>
<!-- relu_in3a_1x1 -->
<g id="node4" class="node"><title>relu_in3a_1x1</title>
<polygon fill="#ffffb3" stroke="black" points="116,-1182 22,-1182 22,-1124 116,-1124 116,-1182"/>
<text text-anchor="middle" x="69" y="-1156.8" font-family="Times,serif" font-size="14.00">Activation</text>
<text text-anchor="middle" x="69" y="-1141.8" font-family="Times,serif" font-size="14.00">relu</text>
</g>
<!-- relu_in3a_1x1&#45;&gt;bn_in3a_1x1 -->
<g id="edge3" class="edge"><title>relu_in3a_1x1&#45;&gt;bn_in3a_1x1</title>
<path fill="none" stroke="black" d="M57.6921,-1114.13C57.0611,-1111.39 56.4871,-1108.66 56,-1106 51.3706,-1080.69 49.1078,-1051.46 48.0106,-1030.44"/>
<polygon fill="black" stroke="black" points="60.1724,-1123.98 53.3655,-1115.38 58.9508,-1119.13 57.7292,-1114.28 57.7292,-1114.28 57.7292,-1114.28 58.9508,-1119.13 62.0928,-1113.18 60.1724,-1123.98 60.1724,-1123.98"/>
<text text-anchor="middle" x="83.5" y="-1073.3" font-family="Times,serif" font-size="14.00">64x28x28</text>
</g>
<!-- conv_in3a_3x3_reduce -->
<g id="node5" class="node"><title>conv_in3a_3x3_reduce</title>
<polygon fill="#fb8072" stroke="black" points="214,-464 120,-464 120,-406 214,-406 214,-464"/>
<text text-anchor="middle" x="167" y="-438.8" font-family="Times,serif" font-size="14.00">Convolution</text>
<text text-anchor="middle" x="167" y="-423.8" font-family="Times,serif" font-size="14.00">1x1/1, 64</text>
</g>
<!-- conv_in3a_3x3_reduce&#45;&gt;Previos Output -->
<g id="edge4" class="edge"><title>conv_in3a_3x3_reduce&#45;&gt;Previos Output</title>
<path fill="none" stroke="black" d="M167,-395.747C167,-370.079 167,-335.51 167,-305 167,-305 167,-305 167,-138 167,-110.446 173.961,-79.7179 180.052,-58.1054"/>
<polygon fill="black" stroke="black" points="167,-405.816 162.5,-395.815 167,-400.816 167,-395.816 167,-395.816 167,-395.816 167,-400.816 171.5,-395.816 167,-405.816 167,-405.816"/>
<text text-anchor="middle" x="191" y="-245.3" font-family="Times,serif" font-size="14.00">3x28x28</text>
</g>
<!-- bn_in3a_3x3_reduce -->
<g id="node6" class="node"><title>bn_in3a_3x3_reduce</title>
<polygon fill="#bebada" stroke="black" points="214,-650 120,-650 120,-592 214,-592 214,-650"/>
<text text-anchor="middle" x="167" y="-617.3" font-family="Times,serif" font-size="14.00">BatchNorm</text>
</g>
<!-- bn_in3a_3x3_reduce&#45;&gt;conv_in3a_3x3_reduce -->
<g id="edge5" class="edge"><title>bn_in3a_3x3_reduce&#45;&gt;conv_in3a_3x3_reduce</title>
<path fill="none" stroke="black" d="M167,-581.315C167,-546.245 167,-495.392 167,-464.077"/>
<polygon fill="black" stroke="black" points="167,-591.653 162.5,-581.653 167,-586.653 167,-581.653 167,-581.653 167,-581.653 167,-586.653 171.5,-581.653 167,-591.653 167,-591.653"/>
<text text-anchor="middle" x="194.5" y="-562.3" font-family="Times,serif" font-size="14.00">64x28x28</text>
</g>
<!-- relu_in3a_3x3_reduce -->
<g id="node7" class="node"><title>relu_in3a_3x3_reduce</title>
<polygon fill="#ffffb3" stroke="black" points="214,-802 120,-802 120,-744 214,-744 214,-802"/>
<text text-anchor="middle" x="167" y="-776.8" font-family="Times,serif" font-size="14.00">Activation</text>
<text text-anchor="middle" x="167" y="-761.8" font-family="Times,serif" font-size="14.00">relu</text>
</g>
<!-- relu_in3a_3x3_reduce&#45;&gt;bn_in3a_3x3_reduce -->
<g id="edge6" class="edge"><title>relu_in3a_3x3_reduce&#45;&gt;bn_in3a_3x3_reduce</title>
<path fill="none" stroke="black" d="M167,-733.507C167,-707.451 167,-673.621 167,-650.087"/>
<polygon fill="black" stroke="black" points="167,-743.786 162.5,-733.786 167,-738.786 167,-733.786 167,-733.786 167,-733.786 167,-738.786 171.5,-733.786 167,-743.786 167,-743.786"/>
<text text-anchor="middle" x="194.5" y="-693.3" font-family="Times,serif" font-size="14.00">64x28x28</text>
</g>
<!-- conv_in3a_3x3 -->
<g id="node8" class="node"><title>conv_in3a_3x3</title>
<polygon fill="#fb8072" stroke="black" points="214,-954 120,-954 120,-896 214,-896 214,-954"/>
<text text-anchor="middle" x="167" y="-928.8" font-family="Times,serif" font-size="14.00">Convolution</text>
<text text-anchor="middle" x="167" y="-913.8" font-family="Times,serif" font-size="14.00">3x3/1, 64</text>
</g>
<!-- conv_in3a_3x3&#45;&gt;relu_in3a_3x3_reduce -->
<g id="edge7" class="edge"><title>conv_in3a_3x3&#45;&gt;relu_in3a_3x3_reduce</title>
<path fill="none" stroke="black" d="M167,-885.507C167,-859.451 167,-825.621 167,-802.087"/>
<polygon fill="black" stroke="black" points="167,-895.786 162.5,-885.786 167,-890.786 167,-885.786 167,-885.786 167,-885.786 167,-890.786 171.5,-885.786 167,-895.786 167,-895.786"/>
<text text-anchor="middle" x="194.5" y="-845.3" font-family="Times,serif" font-size="14.00">64x28x28</text>
</g>
<!-- bn_in3a_3x3 -->
<g id="node9" class="node"><title>bn_in3a_3x3</title>
<polygon fill="#bebada" stroke="black" points="214,-1106 120,-1106 120,-1048 214,-1048 214,-1106"/>
<text text-anchor="middle" x="167" y="-1073.3" font-family="Times,serif" font-size="14.00">BatchNorm</text>
</g>
<!-- bn_in3a_3x3&#45;&gt;conv_in3a_3x3 -->
<g id="edge8" class="edge"><title>bn_in3a_3x3&#45;&gt;conv_in3a_3x3</title>
<path fill="none" stroke="black" d="M167,-1037.51C167,-1011.45 167,-977.621 167,-954.087"/>
<polygon fill="black" stroke="black" points="167,-1047.79 162.5,-1037.79 167,-1042.79 167,-1037.79 167,-1037.79 167,-1037.79 167,-1042.79 171.5,-1037.79 167,-1047.79 167,-1047.79"/>
<text text-anchor="middle" x="194.5" y="-997.3" font-family="Times,serif" font-size="14.00">64x28x28</text>
</g>
<!-- relu_in3a_3x3 -->
<g id="node10" class="node"><title>relu_in3a_3x3</title>
<polygon fill="#ffffb3" stroke="black" points="214,-1258 120,-1258 120,-1200 214,-1200 214,-1258"/>
<text text-anchor="middle" x="167" y="-1232.8" font-family="Times,serif" font-size="14.00">Activation</text>
<text text-anchor="middle" x="167" y="-1217.8" font-family="Times,serif" font-size="14.00">relu</text>
</g>
<!-- relu_in3a_3x3&#45;&gt;bn_in3a_3x3 -->
<g id="edge9" class="edge"><title>relu_in3a_3x3&#45;&gt;bn_in3a_3x3</title>
<path fill="none" stroke="black" d="M167,-1189.51C167,-1163.45 167,-1129.62 167,-1106.09"/>
<polygon fill="black" stroke="black" points="167,-1199.79 162.5,-1189.79 167,-1194.79 167,-1189.79 167,-1189.79 167,-1189.79 167,-1194.79 171.5,-1189.79 167,-1199.79 167,-1199.79"/>
<text text-anchor="middle" x="194.5" y="-1149.3" font-family="Times,serif" font-size="14.00">64x28x28</text>
</g>
<!-- conv_in3a_double_3x3_reduce -->
<g id="node11" class="node"><title>conv_in3a_double_3x3_reduce</title>
<polygon fill="#fb8072" stroke="black" points="299,-168 205,-168 205,-110 299,-110 299,-168"/>
<text text-anchor="middle" x="252" y="-142.8" font-family="Times,serif" font-size="14.00">Convolution</text>
<text text-anchor="middle" x="252" y="-127.8" font-family="Times,serif" font-size="14.00">1x1/1, 64</text>
</g>
<!-- conv_in3a_double_3x3_reduce&#45;&gt;Previos Output -->
<g id="edge10" class="edge"><title>conv_in3a_double_3x3_reduce&#45;&gt;Previos Output</title>
<path fill="none" stroke="black" d="M230.425,-101.015C222.276,-87.0445 213.14,-71.3822 205.525,-58.3283"/>
<polygon fill="black" stroke="black" points="235.612,-109.906 226.686,-103.536 233.093,-105.587 230.573,-101.268 230.573,-101.268 230.573,-101.268 233.093,-105.587 234.46,-99.001 235.612,-109.906 235.612,-109.906"/>
<text text-anchor="middle" x="248" y="-80.3" font-family="Times,serif" font-size="14.00">3x28x28</text>
</g>
<!-- bn_in3a_double_3x3_reduce -->
<g id="node12" class="node"><title>bn_in3a_double_3x3_reduce</title>
<polygon fill="#bebada" stroke="black" points="327,-278 233,-278 233,-220 327,-220 327,-278"/>
<text text-anchor="middle" x="280" y="-245.3" font-family="Times,serif" font-size="14.00">BatchNorm</text>
</g>
<!-- bn_in3a_double_3x3_reduce&#45;&gt;conv_in3a_double_3x3_reduce -->
<g id="edge11" class="edge"><title>bn_in3a_double_3x3_reduce&#45;&gt;conv_in3a_double_3x3_reduce</title>
<path fill="none" stroke="black" d="M270.204,-210.215C266.635,-196.449 262.664,-181.134 259.344,-168.328"/>
<polygon fill="black" stroke="black" points="272.716,-219.906 265.851,-211.356 271.462,-215.066 270.207,-210.226 270.207,-210.226 270.207,-210.226 271.462,-215.066 274.563,-209.097 272.716,-219.906 272.716,-219.906"/>
<text text-anchor="middle" x="294.5" y="-190.3" font-family="Times,serif" font-size="14.00">64x28x28</text>
</g>
<!-- relu_in3a_double_3x3_reduce -->
<g id="node13" class="node"><title>relu_in3a_double_3x3_reduce</title>
<polygon fill="#ffffb3" stroke="black" points="327,-388 233,-388 233,-330 327,-330 327,-388"/>
<text text-anchor="middle" x="280" y="-362.8" font-family="Times,serif" font-size="14.00">Activation</text>
<text text-anchor="middle" x="280" y="-347.8" font-family="Times,serif" font-size="14.00">relu</text>
</g>
<!-- relu_in3a_double_3x3_reduce&#45;&gt;bn_in3a_double_3x3_reduce -->
<g id="edge12" class="edge"><title>relu_in3a_double_3x3_reduce&#45;&gt;bn_in3a_double_3x3_reduce</title>
<path fill="none" stroke="black" d="M280,-319.813C280,-306.152 280,-291.009 280,-278.328"/>
<polygon fill="black" stroke="black" points="280,-329.906 275.5,-319.906 280,-324.906 280,-319.906 280,-319.906 280,-319.906 280,-324.906 284.5,-319.906 280,-329.906 280,-329.906"/>
<text text-anchor="middle" x="307.5" y="-300.3" font-family="Times,serif" font-size="14.00">64x28x28</text>
</g>
<!-- conv_in3a_double_3x3_0 -->
<g id="node14" class="node"><title>conv_in3a_double_3x3_0</title>
<polygon fill="#fb8072" stroke="black" points="326,-540 232,-540 232,-482 326,-482 326,-540"/>
<text text-anchor="middle" x="279" y="-514.8" font-family="Times,serif" font-size="14.00">Convolution</text>
<text text-anchor="middle" x="279" y="-499.8" font-family="Times,serif" font-size="14.00">3x3/1, 96</text>
</g>
<!-- conv_in3a_double_3x3_0&#45;&gt;relu_in3a_double_3x3_reduce -->
<g id="edge13" class="edge"><title>conv_in3a_double_3x3_0&#45;&gt;relu_in3a_double_3x3_reduce</title>
<path fill="none" stroke="black" d="M279.257,-471.507C279.43,-445.451 279.656,-411.621 279.813,-388.087"/>
<polygon fill="black" stroke="black" points="279.188,-481.786 274.755,-471.756 279.221,-476.786 279.255,-471.786 279.255,-471.786 279.255,-471.786 279.221,-476.786 283.755,-471.816 279.188,-481.786 279.188,-481.786"/>
<text text-anchor="middle" x="306.5" y="-431.3" font-family="Times,serif" font-size="14.00">64x28x28</text>
</g>
<!-- bn_in3a_double_3x3_0 -->
<g id="node15" class="node"><title>bn_in3a_double_3x3_0</title>
<polygon fill="#bebada" stroke="black" points="326,-650 232,-650 232,-592 326,-592 326,-650"/>
<text text-anchor="middle" x="279" y="-617.3" font-family="Times,serif" font-size="14.00">BatchNorm</text>
</g>
<!-- bn_in3a_double_3x3_0&#45;&gt;conv_in3a_double_3x3_0 -->
<g id="edge14" class="edge"><title>bn_in3a_double_3x3_0&#45;&gt;conv_in3a_double_3x3_0</title>
<path fill="none" stroke="black" d="M279,-581.813C279,-568.152 279,-553.009 279,-540.328"/>
<polygon fill="black" stroke="black" points="279,-591.906 274.5,-581.906 279,-586.906 279,-581.906 279,-581.906 279,-581.906 279,-586.906 283.5,-581.906 279,-591.906 279,-591.906"/>
<text text-anchor="middle" x="306.5" y="-562.3" font-family="Times,serif" font-size="14.00">96x28x28</text>
</g>
<!-- relu_in3a_double_3x3_0 -->
<g id="node16" class="node"><title>relu_in3a_double_3x3_0</title>
<polygon fill="#ffffb3" stroke="black" points="326,-802 232,-802 232,-744 326,-744 326,-802"/>
<text text-anchor="middle" x="279" y="-776.8" font-family="Times,serif" font-size="14.00">Activation</text>
<text text-anchor="middle" x="279" y="-761.8" font-family="Times,serif" font-size="14.00">relu</text>
</g>
<!-- relu_in3a_double_3x3_0&#45;&gt;bn_in3a_double_3x3_0 -->
<g id="edge15" class="edge"><title>relu_in3a_double_3x3_0&#45;&gt;bn_in3a_double_3x3_0</title>
<path fill="none" stroke="black" d="M276.314,-733.731C276.189,-731.116 276.082,-728.52 276,-726 275.161,-700.236 275.161,-693.764 276,-668 276.188,-662.241 276.507,-656.083 276.869,-650.205"/>
<polygon fill="black" stroke="black" points="276.869,-743.795 271.826,-734.058 276.594,-738.802 276.319,-733.81 276.319,-733.81 276.319,-733.81 276.594,-738.802 280.812,-733.562 276.869,-743.795 276.869,-743.795"/>
<text text-anchor="middle" x="303.5" y="-693.3" font-family="Times,serif" font-size="14.00">96x28x28</text>
</g>
<!-- conv_in3a_double_3x3_1 -->
<g id="node17" class="node"><title>conv_in3a_double_3x3_1</title>
<polygon fill="#fb8072" stroke="black" points="326,-954 232,-954 232,-896 326,-896 326,-954"/>
<text text-anchor="middle" x="279" y="-928.8" font-family="Times,serif" font-size="14.00">Convolution</text>
<text text-anchor="middle" x="279" y="-913.8" font-family="Times,serif" font-size="14.00">3x3/1, 96</text>
</g>
<!-- conv_in3a_double_3x3_1&#45;&gt;relu_in3a_double_3x3_0 -->
<g id="edge16" class="edge"><title>conv_in3a_double_3x3_1&#45;&gt;relu_in3a_double_3x3_0</title>
<path fill="none" stroke="black" d="M279,-885.507C279,-859.451 279,-825.621 279,-802.087"/>
<polygon fill="black" stroke="black" points="279,-895.786 274.5,-885.786 279,-890.786 279,-885.786 279,-885.786 279,-885.786 279,-890.786 283.5,-885.786 279,-895.786 279,-895.786"/>
<text text-anchor="middle" x="306.5" y="-845.3" font-family="Times,serif" font-size="14.00">96x28x28</text>
</g>
<!-- bn_in3a_double_3x3_1 -->
<g id="node18" class="node"><title>bn_in3a_double_3x3_1</title>
<polygon fill="#bebada" stroke="black" points="326,-1106 232,-1106 232,-1048 326,-1048 326,-1106"/>
<text text-anchor="middle" x="279" y="-1073.3" font-family="Times,serif" font-size="14.00">BatchNorm</text>
</g>
<!-- bn_in3a_double_3x3_1&#45;&gt;conv_in3a_double_3x3_1 -->
<g id="edge17" class="edge"><title>bn_in3a_double_3x3_1&#45;&gt;conv_in3a_double_3x3_1</title>
<path fill="none" stroke="black" d="M279,-1037.51C279,-1011.45 279,-977.621 279,-954.087"/>
<polygon fill="black" stroke="black" points="279,-1047.79 274.5,-1037.79 279,-1042.79 279,-1037.79 279,-1037.79 279,-1037.79 279,-1042.79 283.5,-1037.79 279,-1047.79 279,-1047.79"/>
<text text-anchor="middle" x="306.5" y="-997.3" font-family="Times,serif" font-size="14.00">96x28x28</text>
</g>
<!-- relu_in3a_double_3x3_1 -->
<g id="node19" class="node"><title>relu_in3a_double_3x3_1</title>
<polygon fill="#ffffb3" stroke="black" points="326,-1258 232,-1258 232,-1200 326,-1200 326,-1258"/>
<text text-anchor="middle" x="279" y="-1232.8" font-family="Times,serif" font-size="14.00">Activation</text>
<text text-anchor="middle" x="279" y="-1217.8" font-family="Times,serif" font-size="14.00">relu</text>
</g>
<!-- relu_in3a_double_3x3_1&#45;&gt;bn_in3a_double_3x3_1 -->
<g id="edge18" class="edge"><title>relu_in3a_double_3x3_1&#45;&gt;bn_in3a_double_3x3_1</title>
<path fill="none" stroke="black" d="M279,-1189.51C279,-1163.45 279,-1129.62 279,-1106.09"/>
<polygon fill="black" stroke="black" points="279,-1199.79 274.5,-1189.79 279,-1194.79 279,-1189.79 279,-1189.79 279,-1189.79 279,-1194.79 283.5,-1189.79 279,-1199.79 279,-1199.79"/>
<text text-anchor="middle" x="306.5" y="-1149.3" font-family="Times,serif" font-size="14.00">96x28x28</text>
</g>
<!-- avg_pool_in3a_pool -->
<g id="node20" class="node"><title>avg_pool_in3a_pool</title>
<polygon fill="#80b1d3" stroke="black" points="434,-726 340,-726 340,-668 434,-668 434,-726"/>
<text text-anchor="middle" x="387" y="-700.8" font-family="Times,serif" font-size="14.00">Pooling</text>
<text text-anchor="middle" x="387" y="-685.8" font-family="Times,serif" font-size="14.00">avg, 3x3/1</text>
</g>
<!-- avg_pool_in3a_pool&#45;&gt;Previos Output -->
<g id="edge19" class="edge"><title>avg_pool_in3a_pool&#45;&gt;Previos Output</title>
<path fill="none" stroke="black" d="M382.03,-657.82C379.115,-632.182 376,-597.621 376,-567 376,-567 376,-567 376,-138 376,-73.5159 291.585,-46.9294 236.188,-36.4247"/>
<polygon fill="black" stroke="black" points="383.214,-667.874 377.575,-658.47 382.629,-662.909 382.044,-657.943 382.044,-657.943 382.044,-657.943 382.629,-662.909 386.513,-657.416 383.214,-667.874 383.214,-667.874"/>
<text text-anchor="middle" x="400" y="-355.3" font-family="Times,serif" font-size="14.00">3x28x28</text>
</g>
<!-- conv_in3a_proj -->
<g id="node21" class="node"><title>conv_in3a_proj</title>
<polygon fill="#fb8072" stroke="black" points="438,-954 344,-954 344,-896 438,-896 438,-954"/>
<text text-anchor="middle" x="391" y="-928.8" font-family="Times,serif" font-size="14.00">Convolution</text>
<text text-anchor="middle" x="391" y="-913.8" font-family="Times,serif" font-size="14.00">1x1/1, 32</text>
</g>
<!-- conv_in3a_proj&#45;&gt;avg_pool_in3a_pool -->
<g id="edge20" class="edge"><title>conv_in3a_proj&#45;&gt;avg_pool_in3a_pool</title>
<path fill="none" stroke="black" d="M390.324,-885.832C389.525,-840.644 388.212,-766.452 387.498,-726.165"/>
<polygon fill="black" stroke="black" points="390.501,-895.834 385.825,-885.915 390.413,-890.835 390.324,-885.835 390.324,-885.835 390.324,-885.835 390.413,-890.835 394.824,-885.756 390.501,-895.834 390.501,-895.834"/>
<text text-anchor="middle" x="414" y="-845.3" font-family="Times,serif" font-size="14.00">3x28x28</text>
</g>
<!-- bn_in3a_proj -->
<g id="node22" class="node"><title>bn_in3a_proj</title>
<polygon fill="#bebada" stroke="black" points="438,-1106 344,-1106 344,-1048 438,-1048 438,-1106"/>
<text text-anchor="middle" x="391" y="-1073.3" font-family="Times,serif" font-size="14.00">BatchNorm</text>
</g>
<!-- bn_in3a_proj&#45;&gt;conv_in3a_proj -->
<g id="edge21" class="edge"><title>bn_in3a_proj&#45;&gt;conv_in3a_proj</title>
<path fill="none" stroke="black" d="M391,-1037.51C391,-1011.45 391,-977.621 391,-954.087"/>
<polygon fill="black" stroke="black" points="391,-1047.79 386.5,-1037.79 391,-1042.79 391,-1037.79 391,-1037.79 391,-1037.79 391,-1042.79 395.5,-1037.79 391,-1047.79 391,-1047.79"/>
<text text-anchor="middle" x="418.5" y="-997.3" font-family="Times,serif" font-size="14.00">32x28x28</text>
</g>
<!-- relu_in3a_proj -->
<g id="node23" class="node"><title>relu_in3a_proj</title>
<polygon fill="#ffffb3" stroke="black" points="438,-1258 344,-1258 344,-1200 438,-1200 438,-1258"/>
<text text-anchor="middle" x="391" y="-1232.8" font-family="Times,serif" font-size="14.00">Activation</text>
<text text-anchor="middle" x="391" y="-1217.8" font-family="Times,serif" font-size="14.00">relu</text>
</g>
<!-- relu_in3a_proj&#45;&gt;bn_in3a_proj -->
<g id="edge22" class="edge"><title>relu_in3a_proj&#45;&gt;bn_in3a_proj</title>
<path fill="none" stroke="black" d="M391,-1189.51C391,-1163.45 391,-1129.62 391,-1106.09"/>
<polygon fill="black" stroke="black" points="391,-1199.79 386.5,-1189.79 391,-1194.79 391,-1189.79 391,-1189.79 391,-1189.79 391,-1194.79 395.5,-1189.79 391,-1199.79 391,-1199.79"/>
<text text-anchor="middle" x="418.5" y="-1149.3" font-family="Times,serif" font-size="14.00">32x28x28</text>
</g>
<!-- ch_concat_in3a_chconcat -->
<g id="node24" class="node"><title>ch_concat_in3a_chconcat</title>
<polygon fill="#fdb462" stroke="black" points="275,-1368 181,-1368 181,-1310 275,-1310 275,-1368"/>
<text text-anchor="middle" x="228" y="-1335.3" font-family="Times,serif" font-size="14.00">Concat</text>
</g>
<!-- ch_concat_in3a_chconcat&#45;&gt;relu_in3a_1x1 -->
<g id="edge23" class="edge"><title>ch_concat_in3a_chconcat&#45;&gt;relu_in3a_1x1</title>
<path fill="none" stroke="black" d="M171.222,-1321.65C154.673,-1314.67 137.659,-1305.04 125,-1292 95.1902,-1261.3 80.5188,-1212.62 73.8711,-1182.04"/>
<polygon fill="black" stroke="black" points="180.876,-1325.46 169.922,-1325.97 176.225,-1323.62 171.573,-1321.78 171.573,-1321.78 171.573,-1321.78 176.225,-1323.62 173.225,-1317.6 180.876,-1325.46 180.876,-1325.46"/>
<text text-anchor="middle" x="152.5" y="-1280.3" font-family="Times,serif" font-size="14.00">64x28x28</text>
</g>
<!-- ch_concat_in3a_chconcat&#45;&gt;relu_in3a_3x3 -->
<g id="edge24" class="edge"><title>ch_concat_in3a_chconcat&#45;&gt;relu_in3a_3x3</title>
<path fill="none" stroke="black" d="M197.098,-1301.59C194.915,-1298.42 192.85,-1295.21 191,-1292 184.943,-1281.5 179.817,-1269.19 175.877,-1258.31"/>
<polygon fill="black" stroke="black" points="203.08,-1309.78 193.549,-1304.36 200.132,-1305.74 197.183,-1301.7 197.183,-1301.7 197.183,-1301.7 200.132,-1305.74 200.817,-1299.05 203.08,-1309.78 203.08,-1309.78"/>
<text text-anchor="middle" x="218.5" y="-1280.3" font-family="Times,serif" font-size="14.00">64x28x28</text>
</g>
<!-- ch_concat_in3a_chconcat&#45;&gt;relu_in3a_double_3x3_1 -->
<g id="edge25" class="edge"><title>ch_concat_in3a_chconcat&#45;&gt;relu_in3a_double_3x3_1</title>
<path fill="none" stroke="black" d="M245.654,-1300.62C252.203,-1286.75 259.517,-1271.26 265.623,-1258.33"/>
<polygon fill="black" stroke="black" points="241.267,-1309.91 241.468,-1298.94 243.402,-1305.38 245.537,-1300.86 245.537,-1300.86 245.537,-1300.86 243.402,-1305.38 249.606,-1302.79 241.267,-1309.91 241.267,-1309.91"/>
<text text-anchor="middle" x="283.5" y="-1280.3" font-family="Times,serif" font-size="14.00">96x28x28</text>
</g>
<!-- ch_concat_in3a_chconcat&#45;&gt;relu_in3a_proj -->
<g id="edge26" class="edge"><title>ch_concat_in3a_chconcat&#45;&gt;relu_in3a_proj</title>
<path fill="none" stroke="black" d="M284.149,-1310.41C294.619,-1304.68 305.307,-1298.42 315,-1292 330.329,-1281.84 346.25,-1269.22 359.536,-1258.02"/>
<polygon fill="black" stroke="black" points="275.035,-1315.3 281.721,-1306.61 279.441,-1312.94 283.848,-1310.57 283.848,-1310.57 283.848,-1310.57 279.441,-1312.94 285.975,-1314.54 275.035,-1315.3 275.035,-1315.3"/>
<text text-anchor="middle" x="363.5" y="-1280.3" font-family="Times,serif" font-size="14.00">32x28x28</text>
</g>
</g>
</svg>
