<?xml version="1.0" encoding="UTF-8" standalone="no"?>
<!DOCTYPE svg PUBLIC "-//W3C//DTD SVG 1.1//EN"
 "http://www.w3.org/Graphics/SVG/1.1/DTD/svg11.dtd">
<!-- Generated by graphviz version 2.36.0 (20140111.2315)
 -->
<!-- Title: plot Pages: 1 -->
<svg width="144pt" height="506pt"
 viewBox="0.00 0.00 144.00 506.00" xmlns="http://www.w3.org/2000/svg" xmlns:xlink="http://www.w3.org/1999/xlink">
<g id="graph0" class="graph" transform="scale(1 1) rotate(0) translate(4 502)">
<title>plot</title>
<polygon fill="white" stroke="none" points="-4,4 -4,-502 140,-502 140,4 -4,4"/>
<!-- fc1 -->
<g id="node1" class="node"><title>fc1</title>
<ellipse fill="#fb8072" stroke="black" cx="68" cy="-29" rx="68.2532" ry="29"/>
<text text-anchor="middle" x="68" y="-32.8" font-family="Times,serif" font-size="14.00">FullyConnected</text>
<text text-anchor="middle" x="68" y="-17.8" font-family="Times,serif" font-size="14.00">128</text>
</g>
<!-- bn1 -->
<g id="node2" class="node"><title>bn1</title>
<ellipse fill="#bebada" stroke="black" cx="68" cy="-139" rx="47" ry="29"/>
<text text-anchor="middle" x="68" y="-135.3" font-family="Times,serif" font-size="14.00">BatchNorm</text>
</g>
<!-- bn1&#45;&gt;fc1 -->
<g id="edge1" class="edge"><title>bn1&#45;&gt;fc1</title>
<path fill="none" stroke="black" d="M68,-99.8131C68,-86.1516 68,-71.0092 68,-58.3283"/>
<polygon fill="black" stroke="black" points="68,-109.906 63.5001,-99.9062 68,-104.906 68.0001,-99.9062 68.0001,-99.9062 68.0001,-99.9062 68,-104.906 72.5001,-99.9062 68,-109.906 68,-109.906"/>
<text text-anchor="middle" x="78.5" y="-80.3" font-family="Times,serif" font-size="14.00">128</text>
</g>
<!-- act1 -->
<g id="node3" class="node"><title>act1</title>
<ellipse fill="#ffffb3" stroke="black" cx="68" cy="-249" rx="48.4635" ry="29"/>
<text text-anchor="middle" x="68" y="-252.8" font-family="Times,serif" font-size="14.00">Activation</text>
<text text-anchor="middle" x="68" y="-237.8" font-family="Times,serif" font-size="14.00">tanh</text>
</g>
<!-- act1&#45;&gt;bn1 -->
<g id="edge2" class="edge"><title>act1&#45;&gt;bn1</title>
<path fill="none" stroke="black" d="M68,-209.813C68,-196.152 68,-181.009 68,-168.328"/>
<polygon fill="black" stroke="black" points="68,-219.906 63.5001,-209.906 68,-214.906 68.0001,-209.906 68.0001,-209.906 68.0001,-209.906 68,-214.906 72.5001,-209.906 68,-219.906 68,-219.906"/>
<text text-anchor="middle" x="78.5" y="-190.3" font-family="Times,serif" font-size="14.00">128</text>
</g>
<!-- fc2 -->
<g id="node4" class="node"><title>fc2</title>
<ellipse fill="#fb8072" stroke="black" cx="68" cy="-359" rx="68.2532" ry="29"/>
<text text-anchor="middle" x="68" y="-362.8" font-family="Times,serif" font-size="14.00">FullyConnected</text>
<text text-anchor="middle" x="68" y="-347.8" font-family="Times,serif" font-size="14.00">10</text>
</g>
<!-- fc2&#45;&gt;act1 -->
<g id="edge3" class="edge"><title>fc2&#45;&gt;act1</title>
<path fill="none" stroke="black" d="M68,-319.813C68,-306.152 68,-291.009 68,-278.328"/>
<polygon fill="black" stroke="black" points="68,-329.906 63.5001,-319.906 68,-324.906 68.0001,-319.906 68.0001,-319.906 68.0001,-319.906 68,-324.906 72.5001,-319.906 68,-329.906 68,-329.906"/>
<text text-anchor="middle" x="78.5" y="-300.3" font-family="Times,serif" font-size="14.00">128</text>
</g>
<!-- softmax -->
<g id="node5" class="node"><title>softmax</title>
<ellipse fill="#fccde5" stroke="black" cx="68" cy="-469" rx="55.0152" ry="29"/>
<text text-anchor="middle" x="68" y="-465.3" font-family="Times,serif" font-size="14.00">SoftmaxOutput</text>
</g>
<!-- softmax&#45;&gt;fc2 -->
<g id="edge4" class="edge"><title>softmax&#45;&gt;fc2</title>
<path fill="none" stroke="black" d="M68,-429.813C68,-416.152 68,-401.009 68,-388.328"/>
<polygon fill="black" stroke="black" points="68,-439.906 63.5001,-429.906 68,-434.906 68.0001,-429.906 68.0001,-429.906 68.0001,-429.906 68,-434.906 72.5001,-429.906 68,-439.906 68,-439.906"/>
<text text-anchor="middle" x="75" y="-410.3" font-family="Times,serif" font-size="14.00">10</text>
</g>
</g>
</svg>
